<svg height="26" viewBox="0 0 21 26" width="21" xmlns="http://www.w3.org/2000/svg"><g fill="#1c94c9"><path d="m3.08 18 5.07-5.06 1.4 1.42-3.63 3.64 3.63 3.64-1.4 1.43z"/><path d="m8.15 22.35-4.36-4.35 4.36-4.35.7.71-3.64 3.64 3.64 3.65z"/><path d="m4.25 17h13.5v2h-13.5z"/><path d="m4.75 17.5h12.5v1h-12.5z"/><path d="m11.45 11.64 3.63-3.64-3.63-3.64 1.4-1.42 5.07 5.06-5.07 5.06z"/><path d="m12.85 12.36-.7-.71 3.64-3.65-3.64-3.64.7-.71 4.36 4.35z"/><path d="m3.25 7h13.5v2h-13.5z"/><path d="m3.75 7.5h12.5v1h-12.5z"/></g></svg>