<svg height="20.13" viewBox="0 0 14.83 20.13" width="14.83" xmlns="http://www.w3.org/2000/svg"><g fill="#fff"><path d="m0 15.06 5.07-5.06 1.4 1.42-3.64 3.64 3.64 3.65-1.4 1.42z"/><path d="m5.07 19.42-4.36-4.36 4.36-4.35.7.71-3.64 3.64 3.64 3.65z"/><path d="m1.17 14.06h13.5v2h-13.5z"/><path d="m1.67 14.56h12.5v1h-12.5z"/><path d="m8.36 8.71 3.64-3.65-3.64-3.64 1.4-1.42 5.07 5.06-5.07 5.07z"/><path d="m9.77 9.42-.7-.71 3.64-3.65-3.64-3.64.7-.71 4.36 4.35z"/><path d="m.17 4.06h13.5v2h-13.5z"/><path d="m.67 4.56h12.5v1h-12.5z"/></g></svg>